<?xml version="1.0" standalone="no"?>
<!DOCTYPE svg PUBLIC "-//W3C//DTD SVG 1.1//EN" "http://www.w3.org/Graphics/SVG/1.1/DTD/svg11.dtd" >

<svg>
<metadata>
Created by webfont
</metadata>
<defs>

<font id="Noto Sans S Chinese Medium" horiz-adv-x="1000" vert-adv-y="1000" >
  <font-face
    
    font-family="Noto Sans S Chinese Medium"
    
    font-weight="500"
    
    font-stretch="normal"
    
    units-per-em="1000"
    
    panose-1="0 0 0 0 0 0 0 0 0 0"
    
    ascent="880"
    
    descent="-120"
    
    x-height="550"
    
    cap-height="736"
    
    bbox="-1007 -1047 2927 1807"
    
    underline-thickness="50"
    
    underline-position="-100"
    
    unicode-range="U+0001-2CE93"
    
  />
    <missing-glyph />
    
    <glyph glyph-name="cid8" unicode="&#x27;" d="M92 657l-3 118h119l-3 -118l-23 -199h-67z"  horiz-adv-x="298"   />

    
    <glyph glyph-name="cid34" unicode="&#x41;" d="M437 210h-256l-63 -210h-118l244 736h134l244 -736h-123zM409 301l-29 99q-18 60 -35.5 121t-34.5 124h-4q-16 -63 -33 -124t-35 -121l-30 -99h201z"  horiz-adv-x="622"   />

    
    <glyph glyph-name="cid37" unicode="&#x44;" d="M280 95q119 0 181 69t62 207q0 139 -62 205t-181 66h-67v-547h67zM97 736h191q169 0 262 -92.5t93 -272.5q0 -90 -23.5 -159t-68.5 -116t-110 -71.5t-147 -24.5h-197v736z"  horiz-adv-x="699"   />

    
    <glyph glyph-name="cid38" unicode="&#x45;" d="M97 736h435v-97h-319v-205h270v-98h-270v-238h330v-98h-446v736z"  horiz-adv-x="600"   />

    
    <glyph glyph-name="cid40" unicode="&#x47;" d="M397 -13q-74 0 -136.5 25.5t-107.5 74t-70.5 119t-25.5 160.5t26 161t72 120.5t109 76t136 26.5q39 0 72 -8t60 -21t48.5 -29.5t38.5 -34.5l-63 -74q-27 28 -62.5 47t-89.5 19q-51 0 -93 -19.5t-72 -55.5t-46.5 -87.5t-16.5 -116.5q0 -66 15 -118t44.5 -88.5t73 -56
t100.5 -19.5q34 0 65 9.5t51 26.5v173h-146v95h251v-319q-37 -37 -97 -61.5t-136 -24.5z"  horiz-adv-x="701"   />

    
    <glyph glyph-name="cid42" unicode="&#x49;" d="M97 736h116v-736h-116v736z"  horiz-adv-x="309"   />

    
    <glyph glyph-name="cid46" unicode="&#x4d;" d="M97 736h133l135 -372q14 -37 25 -74t24 -75h5q13 38 24 75t24 74l133 372h134v-736h-108v364q0 25 1.5 54t3.5 59.5t5 60t5 54.5h-4l-59 -170l-128 -351h-72l-129 351l-58 170h-4q2 -25 4.5 -54.5t4.5 -60t3.5 -59.5t1.5 -54v-364h-104v736z"  horiz-adv-x="830"   />

    
    <glyph glyph-name="cid47" unicode="&#x4e;" d="M97 736h119l244 -432l77 -156h5q-5 57 -10 121t-5 124v343h110v-736h-119l-244 434l-77 154h-5q5 -57 10 -119t5 -122v-347h-110v736z"  horiz-adv-x="734"   />

    
    <glyph glyph-name="cid10037" unicode="&#x4E8E;" d="M943 357h-384v-309q0 -47 -13 -70.5t-44 -34.5q-31 -12 -83 -15t-127 -3q-4 21 -15.5 49.5t-23.5 48.5q30 -1 58 -1.5t52 -0.5t41.5 0.5t26.5 0.5q16 0 23 5.5t7 21.5v308h-403v92h403v230h-335v92h749v-92h-316v-230h384v-92z"     />

    
    <glyph glyph-name="cid10188" unicode="&#x4EEC;" d="M922 30q0 -38 -9.5 -58.5t-34.5 -31.5q-24 -11 -63.5 -14t-98.5 -3q-2 18 -11 44t-18 43q19 -1 38.5 -1.5t36 -0.5t28.5 0.5t18 0.5q13 1 17.5 5.5t4.5 16.5v689h-256v84h348v-774zM445 838q16 -21 33.5 -46t33.5 -50.5t30 -49t23 -42.5l-76 -46q-8 19 -21 43.5t-29 50.5
t-33 51.5t-33 48.5zM331 631h91v-710h-91v710zM305 809q-17 -54 -36 -107.5t-42 -106.5v-674h-88v502q-28 -47 -56 -83q-3 9 -8.5 22t-12.5 27t-14 27.5t-13 22.5q29 37 55.5 82.5t50 96.5t43 105.5t34.5 109.5z"     />

    
    <glyph glyph-name="cid10342" unicode="&#x4F55;" d="M961 658h-67v-619q0 -45 -12 -67.5t-41 -33.5t-79 -14.5t-121 -2.5q-3 20 -12 47.5t-20 47.5q27 -1 53 -1.5t48.5 -0.5h38.5h24q16 1 22 6t6 20v618h-455v89h615v-89zM456 183v-68h-88v417h319v-349h-231zM456 451v-188h145v188h-145zM349 812q-17 -50 -39 -98.5
t-47 -95.5v-696h-92v546q-20 -29 -41 -55t-42 -49q-3 8 -9 21t-13.5 26.5t-14.5 26t-13 21.5q33 34 65 77.5t61 92.5t54 102t44 107z"     />

    
    <glyph glyph-name="cid10354" unicode="&#x4F5C;" d="M665 586v-127h272v-85h-272v-133h286v-87h-286v-232h-95v664h-56q-32 -59 -66 -110t-70 -91q-6 6 -15 14.5t-19 17.5t-20 17.5t-18 13.5q33 34 64 77.5t59 93t51.5 102.5t41.5 107l89 -24q-12 -32 -25 -64.5t-27 -64.5h402v-89h-296zM363 807q-20 -53 -45 -105.5
t-54 -103.5v-675h-94v528q-20 -27 -40.5 -51.5t-41.5 -46.5q-3 9 -9.5 22t-14 27t-15 26.5t-13.5 20.5q36 35 70 79.5t64.5 94t57 103.5t46.5 109z"     />

    
    <glyph glyph-name="cid49" unicode="&#x50;" d="M313 372q89 0 131.5 34.5t42.5 107.5t-45 101t-133 28h-96v-271h100zM97 736h223q61 0 113 -11.5t89 -37.5t58 -68.5t21 -104.5q0 -60 -21 -104.5t-57.5 -73.5t-87.5 -43t-111 -14h-111v-279h-116v736z"  horiz-adv-x="647"   />

    
    <glyph glyph-name="cid11298" unicode="&#x5173;" d="M580 289q57 -100 153 -169.5t230 -100.5q-17 -17 -36 -43.5t-30 -48.5q-129 37 -221.5 110t-155.5 179q-19 -41 -51 -80.5t-80.5 -77t-116 -72t-158.5 -64.5q-10 17 -29.5 41.5t-39.5 41.5q96 30 163.5 64.5t112.5 70.5t71.5 73.5t39.5 75.5h-362v92h381q1 10 1 19v17
v123h-319v92h181q-7 18 -17.5 38.5t-23 41.5t-26.5 42t-28 39l78 39q16 -19 31.5 -40.5t29 -43t25 -42.5t18.5 -39l-64 -35h257q14 22 29 48t29.5 53t27 53.5t21.5 50.5l100 -34q-23 -43 -50.5 -88t-53.5 -83h184v-92h-322v-125v-16.5t-1 -17.5h376v-92h-354z"     />

    
    <glyph glyph-name="cid53" unicode="&#x54;" d="M247 639h-216v97h549v-97h-217v-639h-116v639z"  horiz-adv-x="610"   />

    
    <glyph glyph-name="cid12448" unicode="&#x5434;" d="M588 171q44 -79 132 -118t232 -49q-16 -14 -30.5 -38.5t-22.5 -44.5q-82 9 -145.5 27t-112 46.5t-83 69t-58.5 95.5q-19 -47 -50.5 -84.5t-80 -67t-117 -51.5t-162.5 -37q-5 18 -19 41t-27 38q80 11 139.5 26.5t102.5 36.5t71 48.5t45 61.5h-344v82h371q5 22 8 44.5
t5 48.5h-321v81h763v-81h-346q-2 -25 -5 -48t-8 -45h416v-82h-353zM832 509h-668v289h668v-289zM735 716h-480v-124h480v124z"     />

    
    <glyph glyph-name="cid12663" unicode="&#x54C1;" d="M923 359v-433h-93v47h-198v-52h-89v438h380zM830 62v208h-198v-208h198zM83 359h362v-431h-92v45h-182v-52h-88v438zM171 270v-208h182v208h-182zM783 456h-559v341h559v-341zM688 708h-375v-163h375v163z"     />

    
    <glyph glyph-name="cid13593" unicode="&#x56E2;" d="M916 797v-876h-99v39h-638v-39h-95v876h832zM817 44v668h-638v-668h638zM769 475h-140v-289q0 -33 -7.5 -51.5t-30.5 -29.5q-22 -10 -54 -13t-79 -3q-4 18 -13 42t-18 41q32 -2 59 -1.5t36 0.5q10 1 13.5 4t3.5 12v189q-60 -64 -128.5 -117.5t-135.5 -91.5
q-10 14 -27 32.5t-33 31.5q38 20 77 46.5t77 57.5t73 66.5t65 73.5h-272v82h304v119h90v-119h140v-82z"     />

    
    <glyph glyph-name="cid14516" unicode="&#x591A;" d="M944 365q-52 -111 -138 -189.5t-195.5 -131t-238 -82t-264.5 -44.5q-5 20 -15.5 46.5t-21.5 43.5q125 11 241 34.5t217 65.5q-23 23 -50.5 45.5t-52.5 40.5l76 46q27 -20 57.5 -43.5t56.5 -47.5q58 33 106 74t83 92h-251q-61 -48 -135.5 -89.5t-165.5 -76.5
q-9 17 -26 38.5t-32 33.5q152 52 256 124.5t160 146.5l102 -23q-15 -19 -30.5 -36.5t-32.5 -34.5h214l16 4zM804 722q-48 -84 -122.5 -150.5t-165.5 -117t-192.5 -85t-202.5 -54.5q-7 17 -19.5 42t-24.5 40q81 14 161 37t155 56q-23 20 -49 40.5t-52 37.5l69 45
q28 -17 58.5 -39t56.5 -43q54 30 101 65t83 76h-268q-48 -36 -103.5 -69.5t-119.5 -63.5q-11 17 -29 36.5t-34 30.5q120 48 207.5 111t135.5 124l101 -23q-14 -17 -29.5 -32.5t-32.5 -31.5h239l16 5z"     />

    
    <glyph glyph-name="cid15906" unicode="&#x5B8B;" d="M611 356q32 -46 73 -91t87 -84.5t95.5 -73t99.5 -57.5q-17 -14 -37.5 -38.5t-32.5 -43.5q-97 54 -188.5 142t-160.5 191v-379h-95v385q-67 -109 -159 -200t-191 -147q-12 18 -31.5 41t-36.5 37q49 24 97.5 58.5t93.5 76t84.5 88t70.5 95.5h-305v89h377v153h95v-153h377
v-89h-313zM174 511h-94v220h387q-9 21 -20 44t-21 42l93 27q15 -26 31 -56.5t25 -56.5h346v-220h-99v132h-648v-132z"     />

    
    <glyph glyph-name="cid17118" unicode="&#x5E0C;" d="M406 432q-18 -29 -38.5 -57.5t-42.5 -54.5h164v91h90v-91h283v-243q0 -33 -8.5 -51.5t-32.5 -28.5q-24 -11 -61 -12.5t-91 -1.5q-4 18 -12.5 40.5t-17.5 39.5q38 -2 70 -2h42q11 1 15 4t4 13v161h-191v-318h-90v318h-171v-264h-92v245q-29 -25 -61 -47.5t-67 -42.5
q-11 15 -30 36.5t-32 34.5q79 42 144.5 101.5t114.5 129.5h-234v82h287q12 21 22 42.5t18 43.5q-59 -17 -117.5 -31t-115.5 -26q-5 8 -13 19t-16.5 22t-17.5 21t-16 17q80 11 161 29t159 40q-66 23 -131 42.5t-125 35.5l64 56q72 -18 153.5 -42t162.5 -50q66 23 123 50.5
t102 57.5l78 -52q-40 -27 -86.5 -51t-97.5 -47q63 -22 117 -43.5t98 -42.5l-71 -66q-48 24 -115 52t-145 56q-22 -8 -45 -15t-46 -15l47 -13q-10 -23 -20 -45.5t-21 -44.5h486v-82h-534z"     />

    
    <glyph glyph-name="cid17317" unicode="&#x5E84;" d="M949 40v-89h-728v89h314v272h-249v89h249v189h95v-189h269v-89h-269v-272h319zM218 622v-171q0 -59 -3 -128.5t-13 -141.5t-29 -140.5t-50 -125.5l-17.5 10t-22.5 12t-23.5 11.5t-20.5 8.5q30 54 47.5 117.5t26 129.5t11 130t2.5 118v256h386q-8 24 -22 55.5t-27 58.5
l91 25q15 -29 32 -63t25 -58l-59 -18h394v-86h-728z"     />

    
    <glyph glyph-name="cid17598" unicode="&#x5F18;" d="M862 -66q-9 46 -27 104q-79 -12 -136.5 -21.5t-98.5 -16.5t-68 -12t-44 -9.5t-27.5 -8t-18.5 -7.5q-1 7 -4.5 19t-8 25t-9.5 26t-9 23q20 8 36.5 43t36.5 95q10 29 28.5 93t39 148t40.5 181.5t34 192.5l102 -18q-15 -91 -34.5 -184t-42 -183t-47.5 -175t-51 -161l256 35
q-22 66 -48 132t-52 126l86 33q25 -53 49.5 -112.5t46.5 -118t39 -112.5t26 -97zM415 340q0 -8 -1 -15l-2 -14t-2 -12q-9 -78 -18 -134.5t-18 -96t-19.5 -64t-22.5 -37.5q-17 -17 -35.5 -24t-44.5 -9q-22 -2 -57.5 -2t-75.5 2q-2 20 -9.5 45t-18.5 45q40 -4 75 -5t52 -1
q14 0 23 2t17 9q17 15 31.5 67.5t27.5 159.5h-255q6 30 11.5 68t11 78.5t10 81.5t7.5 78h224v142h-248v85h337v-313h-237q-8 -71 -17 -136h254z"     />

    
    <glyph glyph-name="cid17614" unicode="&#x5F20;" d="M744 375q31 -119 87.5 -215.5t141.5 -149.5q-17 -14 -35 -35.5t-29 -38.5q-48 32 -87 77.5t-70 102t-55 122t-41 137.5h-83v-312l134 51q0 -20 1.5 -46t4.5 -41q-73 -30 -117.5 -49t-70 -31t-36.5 -18.5t-18 -12.5q-5 17 -16 41t-22 37q15 8 31 25t16 47v309h-100v88h100
v357h93v-357h381v-88h-210zM372 346v-14q0 -12 -2 -22q-5 -86 -9.5 -146.5t-10.5 -101.5t-14 -64.5t-19 -35.5q-14 -16 -31 -23t-41 -9q-21 -2 -55.5 -2t-72.5 2q-1 18 -8.5 41t-18.5 40q36 -3 67.5 -4t45.5 -1q12 0 20.5 2t15.5 9q6 7 11.5 23.5t10 45.5t8.5 72.5t7 103.5
h-192q5 31 9.5 71t9 82.5t7.5 85.5t5 82h162v137h-187v86h276v-309h-171q-4 -39 -7.5 -77.5t-7.5 -73.5h192zM924 771q-23 -41 -51.5 -81t-61 -76.5t-68 -69t-70.5 -57.5l-14.5 14.5t-18.5 17.5t-20 17.5t-18 14.5q35 21 68 48.5t63 59t55.5 66.5t44.5 71z"     />

    
    <glyph glyph-name="cid18926" unicode="&#x6211;" d="M903 388q-67 -123 -169 -227q25 -70 53.5 -109.5t59.5 -39.5q18 0 27.5 40t13.5 133q16 -17 37.5 -31.5t40.5 -20.5q-6 -64 -15.5 -105.5t-24.5 -66t-36.5 -34.5t-51.5 -10q-57 0 -101.5 46t-77.5 127q-93 -80 -198 -135q-11 17 -28.5 38t-35.5 37q62 29 119.5 67.5
t111.5 85.5q-18 61 -31 131.5t-22 148.5h-221v-140l167 33l7 -83q-43 -10 -86.5 -20t-87.5 -19v-199q0 -42 -11 -64t-37 -33t-68.5 -14.5t-102.5 -3.5q-4 20 -14 47.5t-21 46.5q46 -2 84.5 -2t51.5 1q14 1 19 5.5t5 16.5v178q-54 -11 -102 -21.5t-91 -19.5l-26 93
q45 8 100.5 18t118.5 22v158h-202v88h202v138q-45 -8 -88 -14t-84 -11q-4 16 -12 39t-17 38q52 8 106.5 17.5t106.5 21t99 23.5t83 25l65 -78q-37 -12 -78.5 -22.5t-86.5 -19.5v-157h212q-6 68 -9 137.5t-4 141.5h96q-1 -72 2 -142.5t9 -136.5h284v-88h-274q8 -57 16.5 -107
t19.5 -96q34 38 62.5 79t51.5 84zM851 595q-11 18 -27.5 39.5t-36.5 44t-42 44.5t-43 41l70 48q21 -18 43.5 -39t43 -43t38 -42.5t29.5 -38.5z"     />

    
    <glyph glyph-name="cid70" unicode="&#x65;" d="M424 324q0 72 -31.5 111t-91.5 39q-26 0 -49.5 -10t-42.5 -29t-32 -47t-17 -64h264zM316 -13q-56 0 -105 19.5t-85 56t-57 90t-21 121.5q0 67 21 121t56 91.5t80.5 57.5t93.5 20q55 0 96.5 -19t70 -53t43 -82.5t14.5 -106.5q0 -17 -1.5 -32.5t-3.5 -25.5h-357
q7 -79 52.5 -123.5t117.5 -44.5q37 0 69 10.5t62 30.5l40 -73q-38 -26 -85 -42t-101 -16z"  horiz-adv-x="565"   />

    
    <glyph glyph-name="cid20674" unicode="&#x660A;" d="M587 161q54 -67 146.5 -104t223.5 -48q-16 -15 -32 -40.5t-25 -45.5q-148 19 -247 73.5t-157 152.5q-21 -42 -53 -77.5t-80.5 -64t-115.5 -50t-157 -36.5q-6 17 -20 41.5t-26 38.5q75 11 131.5 26.5t98.5 35.5t71 44.5t48 53.5h-337v81h373q5 18 9 38.5t7 41.5h-326v81
h762v-81h-339q-3 -21 -6.5 -41t-8.5 -39h418v-81h-358zM838 462h-668v339h668v-339zM744 598h-484v-66h484v66zM744 731h-484v-67h484v67z"     />

    
    <glyph glyph-name="cid21055" unicode="&#x66F4;" d="M543 239q-9 -43 -28.5 -82.5t-54.5 -74.5q97 -38 222.5 -49.5t285.5 -13.5q-13 -17 -24 -43t-15 -49q-84 3 -160 8.5t-144.5 16t-129 27t-112.5 42.5q-49 -31 -117.5 -56t-160.5 -45q-8 16 -24.5 41t-32.5 41q82 14 142.5 32.5t105.5 40.5q-66 50 -116 129l81 32
q46 -66 112 -110q29 26 45.5 54t25.5 59h-288v394h303v72h-391v84h865v-84h-377v-72h314v-394h-327zM778 400h-222v-37v-24.5t-2 -23.5h224v85zM556 557v-85h222v85h-222zM244 472h215v85h-215v-85zM457 315q2 12 2 24v25v36h-215v-85h213z"     />

    
    <glyph glyph-name="cid74" unicode="&#x69;" d="M144 653q-32 0 -52.5 19t-20.5 49q0 31 20.5 49.5t52.5 18.5t53 -18.5t21 -49.5q0 -30 -21 -49t-53 -19zM87 550h114v-550h-114v550z"  horiz-adv-x="287"   />

    
    <glyph glyph-name="cid23678" unicode="&#x6CD3;" d="M877 -60q-3 17 -6.5 37t-8.5 43q-85 -13 -137 -21.5t-82 -14.5t-43.5 -10.5t-22.5 -8.5q-1 6 -4 16t-7 21.5l-8 23t-7 20.5q18 7 31 46t28 102q4 19 11.5 55t16 84t17.5 106t17 120.5t14.5 128t9.5 128.5l88 -13q-6 -90 -17 -185t-25.5 -188.5t-32.5 -183.5t-38 -170
l174 23q-16 68 -34 139t-38 134l80 23q16 -52 33 -110t32 -115t27 -108.5t19 -91.5zM567 353q-1 -7 -1 -14q-1 -6 -1 -12.5t-1 -10.5q-7 -86 -13.5 -147.5t-14 -102.5t-16 -65.5t-20.5 -36.5q-15 -17 -32 -23.5t-40 -8.5q-20 -2 -51.5 -2t-66.5 2q-1 17 -7.5 39t-17.5 39
q34 -3 62 -4t42 -1q13 0 20.5 2t15.5 10q7 7 14 25t13 48.5t11 76t10 108.5h-178q4 29 9 65.5t9 76t7 79.5t5 76h161v144h-172v76h257v-296h-172q-3 -36 -6.5 -73t-7.5 -70h182zM64 1q15 28 33 65t36 78t36 84.5t34 85.5l77 -54q-14 -39 -30 -79.5t-32.5 -80.5t-34 -79
t-33.5 -73zM198 398q-13 10 -32 22.5t-41 24.5t-44.5 24t-42.5 21l50 69q20 -8 42.5 -18t44.5 -21t41.5 -22t33.5 -21zM251 662q-13 10 -31.5 22.5t-40.5 25.5t-44.5 25t-42.5 22l52 68q20 -9 42.5 -20t44.5 -22.5t41.5 -23.5t33.5 -22z"     />

    
    <glyph glyph-name="cid78" unicode="&#x6d;" d="M87 550h94l9 -77h3q35 38 77 64.5t93 26.5q62 0 98 -26.5t54 -74.5q41 44 84 72.5t95 28.5q87 0 128 -56t41 -162v-346h-115v332q0 72 -22.5 102.5t-69.5 30.5q-55 0 -124 -75v-390h-115v332q0 72 -22 102.5t-70 30.5q-55 0 -124 -75v-390h-114v550z"  horiz-adv-x="942"   />

    
    <glyph glyph-name="cid84" unicode="&#x73;" d="M236 -13q-57 0 -112 21.5t-95 54.5l54 74q37 -29 74 -46t82 -17q50 0 73.5 21t23.5 53q0 19 -10.5 33t-28 25t-39.5 19.5t-44 17.5q-27 10 -55 23.5t-50.5 32t-37 44t-14.5 60.5q0 34 13.5 63.5t38.5 51.5t61.5 34t81.5 12q56 0 100.5 -19.5t78.5 -45.5l-54 -71
q-29 21 -58.5 34.5t-64.5 13.5q-45 0 -66.5 -19.5t-21.5 -48.5q0 -18 10 -30.5t26 -22.5t37 -18t44 -16q29 -11 58 -24t52 -31.5t37.5 -45.5t14.5 -66q0 -35 -13.5 -65t-40 -53t-65.5 -36t-90 -13z"  horiz-adv-x="480"   />

    
    <glyph glyph-name="cid26807" unicode="&#x73C2;" d="M957 689h-70v-651q0 -44 -11.5 -66.5t-39.5 -33.5q-29 -11 -76 -14.5t-114 -2.5q-4 20 -13.5 47.5t-19.5 47.5q25 -1 49.5 -1.5t45 -0.5t36 0.5t23.5 0.5q14 0 19.5 5t5.5 19v650h-393v91h558v-91zM506 197v-63h-78v440h279v-377h-201zM506 492v-213h123v213h-123z
M265 156q32 8 64 17.5t65 18.5l10 -84q-90 -26 -180.5 -52.5t-163.5 -47.5l-19 89q28 7 60.5 15t68.5 18v268h-103v85h103v207h-115v86h328v-86h-118v-207h110v-85h-110v-242z"     />

    
    <glyph glyph-name="cid85" unicode="&#x74;" d="M272 -13q-47 0 -78.5 14t-51.5 39t-28.5 60.5t-8.5 79.5v278h-80v86l85 6l13 152h97v-152h143v-92h-143v-279q0 -50 18.5 -75t61.5 -25q14 0 30.5 4t28.5 9l21 -85q-23 -8 -50.5 -14t-57.5 -6z"  horiz-adv-x="396"   />

    
    <glyph glyph-name="cid89" unicode="&#x78;" d="M193 287l-165 263h124l66 -111q13 -22 25.5 -45.5t26.5 -46.5h4q11 23 22.5 46t23.5 46l58 111h120l-165 -276l177 -274h-125l-72 116q-15 24 -28.5 49.5t-28.5 48.5h-5q-13 -23 -25 -48t-26 -50l-64 -116h-121z"  horiz-adv-x="526"   />

    
    <glyph glyph-name="uni7ACB" unicode="&#x7ACB;" d="M946 55v-94h-891v94h484q19 46 39 104.5t38.5 120t34.5 123t27 115.5l105 -20q-15 -55 -32.5 -114t-36 -116.5t-38 -112t-37.5 -100.5h307zM319 90q-5 41 -15 92t-22 105t-26 108t-27 102l94 23q15 -49 29 -102.5t26.5 -107t23 -103.5t16.5 -92zM905 562h-807v94h807v-94
zM468 660q-3 16 -8.5 36.5t-12 42.5t-13.5 43.5t-14 40.5l92 23q14 -38 29.5 -82t23.5 -76z"     />

    
    <glyph glyph-name="cid39247" unicode="&#x8D5F;" d="M560 128q46 -12 99 -29t105.5 -35t99.5 -36t81 -33l-54 -76q-32 16 -78 35t-97.5 38.5t-105.5 37.5t-101 32zM545 244q-13 -68 -39.5 -120.5t-78.5 -92.5t-135.5 -67t-210.5 -44q-5 17 -17 40t-22 37q117 12 192 32.5t120.5 50.5t67.5 70.5t33 93.5h90zM348 417
q-17 17 -40 35.5t-50 38.5q-75 -72 -168 -117q-4 6 -10.5 14t-14 17t-15 17.5t-13.5 13.5q45 19 84.5 43.5t73.5 56.5q-29 19 -58.5 37.5t-56.5 33.5l51 50q27 -14 56.5 -31.5t58.5 -35.5q17 21 31 43.5t25 47.5h-238v72h148q-8 16 -18 32.5t-21 30.5l69 28
q16 -18 30.5 -41.5t22.5 -40.5l-19 -9h149v-72h-38q-15 -37 -35 -70t-43 -63q29 -20 53.5 -38.5t41.5 -34.5zM737 103v172h-467v-180h-92v264h655v-256h-96zM576 637h-143v66h290q-2 29 -4 61.5t-3 67.5h79q0 -36 1.5 -68t3.5 -61h140v-66h-133q12 -95 33 -141t42 -46
q12 0 17.5 18t7.5 69q12 -11 27.5 -20t29.5 -14q-3 -39 -9.5 -64.5t-17 -40t-25.5 -20t-34 -5.5q-58 0 -95 67t-54 197h-88v-48h82v-57h-82v-56l105 7v-62q-91 -8 -176.5 -14.5t-152.5 -11.5l-7 65l49 3v141h61v-137l56 4v166zM687 744h-219v60h219v-60zM890 710
q-14 17 -37 38.5t-46 38.5l46 33q23 -14 47 -34.5t38 -37.5z"     />

    
    <glyph glyph-name="cid40543" unicode="&#x9038;" d="M267 116q17 -8 35.5 -20.5t46.5 -27.5q49 -26 114 -33.5t146 -7.5q41 0 88 1.5t94 4t91.5 6t80.5 7.5q-4 -9 -8 -20.5t-8 -24t-6.5 -25t-2.5 -21.5q-26 -2 -67.5 -3.5t-88.5 -3.5t-93.5 -3t-82.5 -1q-89 0 -155 10.5t-119 38.5q-33 18 -57.5 35t-41.5 17q-13 0 -29 -9.5
t-33.5 -25.5t-36.5 -36.5t-38 -42.5l-56 78q35 34 70.5 60.5t67.5 40.5v290h-126v86h215v-370zM203 592q-10 17 -26.5 38t-36 42.5t-41 43.5t-41.5 40l70 49q20 -17 41.5 -37.5t41.5 -41.5t37.5 -41.5t29.5 -37.5zM776 341q28 -19 56 -45t43 -47l-55 -44q-14 21 -41.5 49.5
t-54.5 48.5zM352 516q-6 6 -15.5 14t-20 16.5t-21 16t-18.5 12.5q62 48 116 117.5t87 146.5l91 -25q-6 -14 -12.5 -26.5t-14.5 -26.5h172l13 4l62 -37q-14 -28 -34 -58.5t-41 -58.5h173v-260h-195v-165q0 -20 7.5 -25t33.5 -5h110q10 0 16.5 2.5t10.5 11t6 23.5t3 41
q14 -10 36 -18t39 -13q-4 -36 -11 -60t-18.5 -38t-29.5 -19.5t-43 -5.5h-130q-35 0 -56.5 5t-34.5 17t-17.5 32.5t-4.5 50.5v94q-35 -66 -94.5 -116.5t-157.5 -85.5q-7 16 -21.5 35t-27.5 30q101 34 157 87.5t83 121.5h-182v179zM573 424q6 27 9.5 55.5t6.5 58.5h-136v-114
h120zM800 538h-124q-5 -61 -15 -114h139v114zM501 689l-28 -40t-30 -38h167q15 17 29.5 37.5t27.5 40.5h-166z"     />

    
    <glyph glyph-name="cid43181" unicode="&#x961F;" d="M706 836q-1 -74 -2 -146.5t-6 -144.5q3 -24 9 -64t18 -89.5t31 -104.5t48.5 -108.5t70.5 -102.5t97 -85q-20 -14 -39 -33t-30 -37q-50 34 -88 79t-67.5 95t-50 102.5t-35.5 102.5q-29 -115 -88 -212.5t-165 -167.5q-11 17 -30.5 37t-38.5 33q69 44 116 100.5t77 123
t46 141t23 153.5t7.5 162t1.5 166h95zM438 763q-23 -61 -50 -128.5t-53 -125.5q28 -30 46 -58.5t28 -54.5t13.5 -50.5t3.5 -46.5q0 -45 -11 -77t-35 -49q-22 -15 -57 -20q-16 -2 -35 -2.5t-37 1.5q-1 18 -7 43t-18 43q17 -1 31.5 -1.5t25.5 0.5q19 0 32 8q12 8 17 24.5
t5 39.5q0 37 -19 85.5t-74 104.5q20 49 41 107.5t37 108.5h-137v-791h-88v874h261l14 4z"     />

    
    <glyph glyph-name="cid46769" unicode="&#x9E4F;" d="M707 641q29 -25 59 -53.5t47 -48.5l-46 -47q-9 11 -21 24.5t-26 28.5t-29 29.5t-28 26.5zM934 303q0 -85 -3 -144t-8.5 -98.5t-13 -61.5t-15.5 -33q-13 -17 -27.5 -23t-35.5 -8q-17 -2 -45 -2.5t-59 1.5q-1 17 -7 38t-15 36q29 -2 55 -3t37 -1t18 2t12 9q5 6 9 22t7.5 46
t6 75t5.5 109h-271v474h65q10 23 19 49.5t14 46.5l84 -13q-11 -21 -20.5 -42.5t-20.5 -40.5h179q-1 -6 -1 -12v-20q-2 -73 -4.5 -124t-6 -85.5t-8 -54t-11.5 -28.5q-11 -14 -23.5 -20t-29.5 -8q-14 -2 -37 -2.5t-49 1.5q-1 17 -6 36.5t-13 34.5q23 -3 41.5 -3.5t27.5 -0.5
q16 0 24 10q4 5 7 18t5.5 37.5t4 61t3.5 89.5h-168v-333h274v-35zM827 111h-270v73h270v-73zM534 14q0 -29 -6 -45.5t-22 -26.5t-39.5 -12t-58.5 -2q-2 15 -8 36.5t-14 36.5q23 -2 41.5 -2h24.5q13 1 13 15v249h-73q-4 -90 -14.5 -181t-33.5 -162q-10 9 -27.5 20.5
t-29.5 16.5q15 47 23.5 103t13 114.5t5.5 116.5t1 109v404h204v-790zM394 731v-159h71v159h-71zM465 338v160h-71v-97v-63h71zM287 24q0 -27 -5.5 -44.5t-20.5 -25.5q-14 -11 -36 -13.5t-54 -2.5q-2 14 -7.5 36.5t-12.5 36.5q20 -1 36.5 -0.5t22.5 0.5q12 0 12 14v240h-75
q-2 -45 -6 -91.5t-10.5 -91t-15.5 -86t-22 -77.5q-10 10 -28 23t-31 18q18 50 28 109t15 120t6 120.5t1 111.5v383h203v-780zM150 731v-159h72v159h-72zM222 338v160h-72v-76v-41t-1 -43h73z"     />

    
    <glyph glyph-name="cid46790" unicode="&#x9E64;" d="M686 647q26 -25 52 -54t42 -49l-53 -42q-15 21 -41 51.5t-49 56.5zM940 344q-1 -7 -1 -13v-22q-4 -89 -7.5 -150.5t-8 -103t-11 -64.5t-15.5 -34q-14 -17 -29 -23.5t-36 -8.5q-20 -2 -51.5 -2t-66.5 2q-2 17 -8 37.5t-15 37.5q34 -4 62.5 -4.5t41.5 -0.5q12 0 19.5 1.5
t13.5 9.5q5 6 9.5 23.5t8 49t6.5 79t6 114.5h-302v476h89q8 23 14.5 46.5t11.5 42.5l87 -13q-8 -19 -17.5 -38t-17.5 -38h180q-1 -6 -1 -12v-21q-3 -72 -5.5 -122.5t-6.5 -84t-9 -53t-12 -28.5q-11 -14 -24 -20.5t-31 -8.5q-15 -2 -40 -2.5t-52 1.5q-2 17 -7 37t-13 35
q24 -3 44 -3.5t30 -0.5q9 0 14.5 2t10.5 9q4 5 7.5 18t6 36.5t4.5 59t4 85.5h-192v-330h251v-1h58zM815 113h-292v75h292v-75zM376 40h138v-74h-321v-44h-75v418q-11 -11 -21.5 -22t-21.5 -21q-3 7 -8 18t-11 22t-12.5 21.5t-11.5 17.5q60 53 104 126t74 162h-67v-101h-73
v173h162q7 26 13 52.5t11 53.5l77 -14l-10 -46l-10 -46h192v-172h-76v100h-137q-14 -45 -30.5 -86t-36.5 -79h87q-14 43 -33 83l64 22q13 -24 24.5 -53.5t19.5 -51.5h113v-75h-124v-77h108v-70h-108v-82h108v-71h-108v-84zM300 277h-107v-82h107v82zM300 424h-107v-77h107
v77zM193 40h107v84h-107v-84z"     />

    
    <glyph glyph-name="uni9EC4" unicode="&#x9EC4;" d="M946 594v-84h-398v-62h300v-345h-687v345h291v62h-394v84h240v81h-169v82h169v81h95v-81h217v81h96v-81h173v-82h-173v-81h240zM251 308h201v73h-201v-73zM251 170h201v75h-201v-75zM755 245h-207v-75h207v75zM548 381v-73h207v73h-207zM393 594h217v81h-217v-81zM636 98
q41 -14 83 -29t82 -30t75.5 -29.5t62.5 -26.5l-67 -62q-51 25 -129 57t-161 61zM430 42q-30 -18 -67 -36t-77.5 -34.5t-82 -30t-79.5 -23.5q-12 14 -30.5 33t-34.5 32q38 9 79 22.5t80 28.5t73.5 31.5t58.5 31.5z"     />

    

  </font>
</defs>
</svg>
