<svg id="图层_1" data-name="图层 1" xmlns="http://www.w3.org/2000/svg" viewBox="0 0 49 49"><defs><style>.cls-1{fill:#b5916f;}</style></defs><title>图标切图</title><rect class="cls-1" x="7.63" y="36.21" width="6.62" height="6.62" transform="translate(-28.58 50.46) rotate(-90)"/><rect class="cls-1" x="7.63" y="21.17" width="6.62" height="6.62" transform="translate(-13.54 35.42) rotate(-90)"/><rect class="cls-1" x="7.63" y="6.13" width="6.62" height="6.62" transform="translate(1.5 20.39) rotate(-90)"/><rect class="cls-1" x="21.88" y="36.21" width="6.62" height="6.62" transform="translate(-14.33 64.71) rotate(-90)"/><rect class="cls-1" x="21.88" y="21.17" width="6.62" height="6.62" transform="translate(0.71 49.67) rotate(-90)"/><rect class="cls-1" x="21.88" y="6.13" width="6.62" height="6.62" transform="translate(15.74 34.63) rotate(-90)"/><rect class="cls-1" x="35.34" y="36.21" width="6.62" height="6.62" transform="translate(-0.87 78.18) rotate(-90)"/><rect class="cls-1" x="35.34" y="21.17" width="6.62" height="6.62" transform="translate(14.17 63.14) rotate(-90)"/><rect class="cls-1" x="35.34" y="6.13" width="6.62" height="6.62" transform="translate(29.21 48.1) rotate(-90)"/></svg>