<svg id="图层_1" data-name="图层 1" xmlns="http://www.w3.org/2000/svg" viewBox="0 0 135 47"><defs><style>.cls-1{fill:#b5916f;}</style></defs><title>图标切图</title><polygon class="cls-1" points="107.91 6.81 107.91 22.62 123.72 22.62 107.91 6.81"/><polygon class="cls-1" points="69.34 22.62 104.7 22.62 87.02 4.93 69.34 22.62"/><polygon class="cls-1" points="9.09 40.3 25.84 23.56 9.09 6.81 9.09 40.3"/><path class="cls-1" d="M.11-.23V47.33H135.36V-.23ZM107.91,24.5V44.83H106v-19l-19,19H84.37L104.7,24.5H29.43L49.77,44.83H47.11L27.17,24.88l-20,19.94V2.28l20,20,20-20,20,20,20-20,19,19v-19L128.25,24.5Z"/></svg>