<svg id="图层_1" data-name="图层 1" xmlns="http://www.w3.org/2000/svg" viewBox="0 0 48 48"><defs><style>.cls-1{fill:#b5916f;fill-rule:evenodd;}</style></defs><title>图标切图</title><path class="cls-1" d="M32.62,16.34a14.3,14.3,0,0,1,1.58.1C32.78,9.81,25.69,4.88,17.61,4.88c-9,0-16.45,6.16-16.45,14,0,4.52,2.46,8.23,6.58,11.11L6.09,34.93,11.84,32a28.13,28.13,0,0,0,5.76.83c.52,0,1,0,1.54-.07a12.25,12.25,0,0,1-.51-3.45c0-7.19,6.17-13,14-13Zm-8.85-4.46a1.94,1.94,0,0,1,2.06,2.05A2,2,0,0,1,23.77,16a2.31,2.31,0,0,1-2.47-2.06,2.3,2.3,0,0,1,2.47-2.05ZM12.26,16a2.32,2.32,0,0,1-2.48-2.06,2.31,2.31,0,0,1,2.48-2.05,1.94,1.94,0,0,1,2.05,2.05A1.94,1.94,0,0,1,12.26,16Z"/><path class="cls-1" d="M47.63,29.16c0-6.58-6.58-11.94-14-11.94-7.83,0-14,5.36-14,11.94s6.16,11.94,14,11.94a20.66,20.66,0,0,0,4.94-.83l4.51,2.47-1.24-4.11c3.3-2.48,5.76-5.76,5.76-9.47ZM29.12,27.1a1.65,1.65,0,0,1,0-3.29,1.88,1.88,0,0,1,2.06,1.65,1.87,1.87,0,0,1-2.06,1.65Zm9,0a1.65,1.65,0,0,1,0-3.29,1.89,1.89,0,0,1,2.06,1.65,1.88,1.88,0,0,1-2.06,1.65Z"/></svg>