<svg id="图层_1" data-name="图层 1" xmlns="http://www.w3.org/2000/svg" viewBox="0 0 48 48"><defs><style>.cls-1{fill:#b5916f;fill-rule:evenodd;}</style></defs><title>图标切图</title><path class="cls-1" d="M7.08,27.37c-1.49,3.72-1.74,7.27-.54,7.93.83.46,2.13-.59,3.35-2.49a10.53,10.53,0,0,0,3.38,5.47c-1.79.7-3,1.83-3,3.12,0,2.12,3.16,3.83,7.06,3.83,3.52,0,6.43-1.39,7-3.22h.84c.55,1.83,3.46,3.22,7,3.22,3.9,0,7.06-1.71,7.06-3.83,0-1.29-1.17-2.41-3-3.12a10.54,10.54,0,0,0,3.38-5.47c1.22,1.9,2.51,3,3.35,2.49,1.21-.66,1-4.21-.54-7.93-1.18-2.91-2.78-5.06-4-5.55,0-.18,0-.37,0-.56a5.84,5.84,0,0,0-.81-3,1.3,1.3,0,0,0,0-.2,3.27,3.27,0,0,0-.32-1.42C37.05,9,32.36,3,24.77,3S12.48,9,12.17,16.62A3.39,3.39,0,0,0,11.85,18a1.62,1.62,0,0,0,0,.2,5.9,5.9,0,0,0-.8,3c0,.19,0,.38,0,.56-1.21.48-2.82,2.62-4,5.54Z"/></svg>