<svg id="图层_1" data-name="图层 1" xmlns="http://www.w3.org/2000/svg" viewBox="0 0 48 48"><defs><style>.cls-1{fill:#b5916f;fill-rule:evenodd;}</style></defs><title>图标切图</title><path class="cls-1" d="M34.68,22.44c-1.73-.34-.89-1.27-.89-1.27s1.69-2.79-.34-4.82c-2.51-2.51-8.62.32-8.62.32-2.33.72-1.71-.33-1.38-2.12,0-2.11-.72-5.69-6.94-3.58S5,20.54,5,20.54c-3.71,4.95-3.22,8.77-3.22,8.77.93,8.44,9.89,10.76,16.87,11.31,7.34.58,17.24-2.53,20.25-8.91s-2.45-8.92-4.19-9.27h0M19.17,38.23C11.88,38.58,6,34.92,6,30.06S11.88,21.29,19.17,21s13.19,2.67,13.19,7.52-5.9,9.42-13.19,9.75h0M17.72,24.16c-7.33.86-6.48,7.72-6.48,7.72a3.79,3.79,0,0,0,2,3.28,8.5,8.5,0,0,0,10.93-2c2.23-2.88.92-9.89-6.42-9h0m-1.85,9.63A2,2,0,0,1,13.4,32a2.62,2.62,0,0,1,2.35-2.48c1.57-.15,2.59.76,2.59,1.9a2.65,2.65,0,0,1-2.47,2.35h0m4.32-3.68A.85.85,0,0,1,18.91,30a1.08,1.08,0,0,1,.31-1.4.89.89,0,0,1,1.35.12,1.14,1.14,0,0,1-.38,1.39h0M38.25,19.47a1.19,1.19,0,0,0,1.18-1,.49.49,0,0,0,0-.13c.89-8-6.59-6.66-6.59-6.66a1.2,1.2,0,0,0,0,2.41C38.23,12.89,37,18.27,37,18.27a1.2,1.2,0,0,0,1.21,1.2h0m-.87-14.3a14.27,14.27,0,0,0-6,.19c-.06,0-.11.12-.16.14s0,.06,0,.06A1.78,1.78,0,0,0,29.9,7.26,1.75,1.75,0,0,0,31.65,9a8.21,8.21,0,0,0,1.58-.37,9.21,9.21,0,0,1,8.66,4.28,7.81,7.81,0,0,1,.54,5.8,5.16,5.16,0,0,0-.35,1.68c0,1,.78,1.31,1.74,1.31.81,0,1.48-.36,1.68-1.73h0C48.37,10.4,42,6.25,37.38,5.17h0m0,0"/></svg>