<svg id="图层_1" data-name="图层 1" xmlns="http://www.w3.org/2000/svg" viewBox="0 0 443 63"><defs><style>.cls-1{fill:#b5916f;}.cls-2{fill:#fff;}</style></defs><title>图标切图</title><polygon class="cls-1" points="135.51 10.93 135.51 30.73 155.31 30.73 135.51 10.93"/><polygon class="cls-1" points="87.19 30.73 131.49 30.73 109.34 8.58 87.19 30.73"/><polygon class="cls-1" points="11.74 52.88 32.71 31.91 11.74 10.93 11.74 52.88"/><path class="cls-1" d="M.48,2.12V61.68H169.9V2.12Zm135,31V58.55h-2.35V34.75L109.35,58.55H106l25.47-25.47H37.21L62.68,58.55H59.36l-25-25-25,25V5.25l25,25,25-25,25,25,25-25,23.81,23.81V5.25L161,33.09Z"/><polygon class="cls-2" points="192.53 9.67 192.53 4.52 211.19 4.52 211.19 9.67 212.63 9.67 212.63 3.08 212.62 3.08 211.19 3.08 192.53 3.08 191.09 3.08 191.09 3.08 191.09 9.67 192.53 9.67"/><polygon class="cls-2" points="202.59 15.57 202.59 12.56 201.16 12.56 201.16 15.57 190.79 15.57 190.79 17.01 201.16 17.01 201.16 33.02 202.59 33.02 202.59 17.01 212.96 17.01 212.96 15.57 202.59 15.57"/><rect class="cls-2" x="196.32" y="7.86" width="1.44" height="4.86"/><rect class="cls-2" x="205.66" y="7.86" width="1.44" height="4.86"/><rect class="cls-2" x="181.81" y="3.08" width="6.37" height="1.44"/><rect class="cls-2" x="181.81" y="9.71" width="6.37" height="1.44"/><rect class="cls-2" x="194.96" y="19.5" width="1.44" height="12.21"/><path class="cls-2" d="M208.83,30V19.46h-1.48V30.72a.9.9,0,0,0,1,1h4.24V30.28h-3.44A.33.33,0,0,1,208.83,30Z"/><path class="cls-2" d="M187.21,16.41h-5.46v1.46h4.66a.33.33,0,0,1,.32.31V33h1.48V17.44A.9.9,0,0,0,187.21,16.41Z"/><path class="cls-2" d="M257,30.3h8.76V5.92H257Zm1.46-22.92h5.84v8.91h-5.84Zm0,10.37h5.84v11.1h-5.84Z"/><polygon class="cls-2" points="279.29 21.39 287.88 33.03 289.7 33.03 281.11 21.39 279.29 21.39"/><path class="cls-2" d="M288.11,18.91V3.68h-8.36V1.32h-1.52V3.68H269.4V18.91h-1.67v1.31h9.73L267.19,33H269l10.43-12.81h10.64V18.91Zm-9.88,0h-7.3V5h7.3Zm8.36,0h-6.84V5h6.84Z"/><path class="cls-2" d="M327.59,19.64,327,18.32l-9.47,4.06v-4.9h9.54v-7H318.9l4.49-4.07h0V4.94H312.9L315,3.08h-2.15l-7.55,6.85v1.94l1.54-1.4v7h7.35L305,21.43V23l11.14-4.78v3.06L305,26.06v1.57l11.14-4.79v3.35L305,31v1.57l11.14-4.79v3.53a.37.37,0,0,1-.36.36h-4.62V33h5.42a.86.86,0,0,0,1-1v-8.1l3.39-1.45,4.37,10.17h1.55l-4.6-10.73Zm-2-3.59h-8.11V11.88h8.11ZM311.31,6.38h9.94l-4.49,4.07h-9.94Zm-3.08,5.51h7.86V16h-7.86Z"/><path class="cls-2" d="M301.17,3.1h-5.42V4.48h4.62a.37.37,0,0,1,.36.36V33h1.41V4.08A.86.86,0,0,0,301.17,3.1Z"/><polygon class="cls-2" points="350.39 31.7 350.39 5.12 364.9 5.12 364.9 3.68 334.51 3.68 334.51 5.12 348.95 5.12 348.95 31.7 332.93 31.7 332.93 33.13 366.62 33.13 366.62 31.7 350.39 31.7"/><path class="cls-2" d="M377.83,3H372.4V4.4H377a.37.37,0,0,1,.36.36V33h1.41V4A.86.86,0,0,0,377.83,3Z"/><polygon class="cls-2" points="403.36 4.45 403.36 3.01 380.51 3.01 380.51 4.45 387.66 4.45 387.66 32.97 389.1 32.97 389.1 24 402.82 24 402.82 22.56 389.1 22.56 389.1 14.32 402.39 14.32 402.39 12.88 389.1 12.88 389.1 4.45 403.36 4.45"/><polygon class="cls-2" points="236.22 3.09 239.21 0.11 233.22 0.11 236.21 3.09 222.33 3.09 220.9 3.09 220.89 3.09 220.89 33.03 222.33 33.03 222.33 4.53 249.63 4.53 249.63 3.09 236.22 3.09"/><polygon class="cls-2" points="237.95 31.59 234.42 28.82 247.63 20.18 247.63 20.17 247.66 20.17 247.66 18.74 224.64 18.74 224.64 20.17 245.01 20.17 233.23 27.89 227.05 23.06 227.05 24.9 231.95 28.71 225.28 33.03 227.94 33.03 233.15 29.65 237.42 33.01 237.43 32.99 237.43 33.03 250.03 33.03 250.03 31.59 237.95 31.59"/><path class="cls-2" d="M229.49,6.52v3h-5.83V11h5.83v5.13H243V14.67h0V11h6.49V9.54H243v-3h-1.44v3H230.93v-3ZM241.56,11v3.7H230.93V11Z"/><polygon class="cls-2" points="410.51 3.11 410.51 8.8 411.94 8.8 411.94 4.54 440.03 4.54 440.03 8.8 441.46 8.8 441.46 3.11 410.51 3.11"/><path class="cls-2" d="M426.63,24.65h12.09V23.37H426.63V17.14h12.72l-8-8.38h6.33V7.48H414.39V8.76h5.83l-7.46,8.38H425.2v6.23H413.39v1.28H425.2v7H410.51V33h30.94V31.69H426.63Zm-10.87-8.79,6.32-7.1h7.61l6.53,7.1Z"/><polygon class="cls-2" points="429.1 0 422.88 0.01 425.99 3.09 429.1 0"/><path class="cls-2" d="M183.52,60.09V46.68h3.82a7.4,7.4,0,0,1,5.07,1.77,6,6,0,0,1,2,4.76,6.49,6.49,0,0,1-2,5,7.34,7.34,0,0,1-5.21,1.88Zm1.73-11.86V58.56h1.95a5.48,5.48,0,0,0,4-1.39,5.19,5.19,0,0,0,1.43-3.9,4.7,4.7,0,0,0-1.47-3.77,5.73,5.73,0,0,0-3.87-1.26Z"/><path class="cls-2" d="M203.87,60.09h-7.21V46.68h6.91v1.54H198.4v4.29h4.79V54H198.4v4.51h5.48Z"/><path class="cls-2" d="M213.26,60.09h-7.21V46.68H213v1.54h-5.18v4.29h4.79V54h-4.79v4.51h5.48Z"/><path class="cls-2" d="M217.18,55.08v5h-1.73V46.68h3.81a5,5,0,0,1,3.37,1,3.76,3.76,0,0,1,1.2,3,4,4,0,0,1-1.4,3.2,4.87,4.87,0,0,1-3.5,1.15Zm0-6.87v5.35h1.6a3.57,3.57,0,0,0,2.41-.71,2.56,2.56,0,0,0,.82-2q0-2.59-3.06-2.59Z"/><path class="cls-2" d="M233.84,48.14h-1.29V58.63h1.29v1.46h-4.31V58.63h1.29V48.14h-1.29V46.68h4.31Z"/><path class="cls-2" d="M247.8,60.09V51.21q0-1.1.13-2.64h0a8.2,8.2,0,0,1-.4,1.35l-4.42,10.17h-1L237.69,50a9.17,9.17,0,0,1-.4-1.43h-.05q.09.93.09,2.72v8.8h-1.65V46.68H238l4,9.19a12.07,12.07,0,0,1,.6,1.64h.06q.45-1.24.63-1.68l4-9.16h2.23v13.4Z"/><path class="cls-2" d="M263.17,60.09h-1.91l-1.37-3.67h-5.58L253,60.09h-1.91l5.11-13.4h1.85Zm-3.82-5.18-2-5.57a6.34,6.34,0,0,1-.21-.93h0a5.2,5.2,0,0,1-.22.93l-2,5.57Z"/><path class="cls-2" d="M274.64,59.17a9,9,0,0,1-4.54,1.14,6.23,6.23,0,0,1-4.69-1.84,6.77,6.77,0,0,1-1.78-4.91,7,7,0,0,1,2-5.11,6.76,6.76,0,0,1,5-2,8.79,8.79,0,0,1,3.68.69V49a7.06,7.06,0,0,0-3.83-1,4.76,4.76,0,0,0-3.61,1.5,5.5,5.5,0,0,0-1.42,3.95,5.53,5.53,0,0,0,1.31,3.92,4.59,4.59,0,0,0,3.53,1.4,5.34,5.34,0,0,0,2.6-.59V54.56H270V53h4.65Z"/><path class="cls-2" d="M280.35,48.14h-1.29V58.63h1.29v1.46H276V58.63h1.29V48.14H276V46.68h4.31Z"/><path class="cls-2" d="M293.13,60.09h-2.05l-6.74-10.43a5.13,5.13,0,0,1-.46-.87h-.05a15.5,15.5,0,0,1,.07,1.88v9.42h-1.71V46.68h2.17l6.56,10.25a9.43,9.43,0,0,1,.55.93h0a14.82,14.82,0,0,1-.09-2V46.68h1.71Z"/><path class="cls-2" d="M306.37,59.17a9,9,0,0,1-4.53,1.14,6.22,6.22,0,0,1-4.69-1.84,6.77,6.77,0,0,1-1.78-4.91,7,7,0,0,1,2-5.11,6.76,6.76,0,0,1,5-2,8.78,8.78,0,0,1,3.68.69V49a7.05,7.05,0,0,0-3.83-1,4.76,4.76,0,0,0-3.61,1.5,5.5,5.5,0,0,0-1.42,3.95,5.53,5.53,0,0,0,1.31,3.92,4.59,4.59,0,0,0,3.53,1.4,5.35,5.35,0,0,0,2.6-.59V54.56h-2.91V53h4.65Z"/><path class="cls-2" d="M324.05,46.68l-4.92,13.4h-1.92l-4.83-13.4h1.92l3.61,10.48a6,6,0,0,1,.27,1.2h0a5.19,5.19,0,0,1,.3-1.22l3.68-10.46Z"/><path class="cls-2" d="M328.61,48.14h-1.29V58.63h1.29v1.46H324.3V58.63h1.29V48.14H324.3V46.68h4.31Z"/><path class="cls-2" d="M329.82,57.57a4.8,4.8,0,0,0,1.64.88,6.12,6.12,0,0,0,2,.35q2.82,0,2.82-2a1.77,1.77,0,0,0-.3-1,2.9,2.9,0,0,0-.83-.8,22.14,22.14,0,0,0-2-1.06,7.63,7.63,0,0,1-2.66-1.87,3.2,3.2,0,0,1-.64-2,3.11,3.11,0,0,1,1.34-2.65,5.59,5.59,0,0,1,3.38-1,6.7,6.7,0,0,1,2.93.48v1.89a5.26,5.26,0,0,0-3.06-.84,3.56,3.56,0,0,0-2,.51,1.63,1.63,0,0,0-.77,1.43,1.74,1.74,0,0,0,.54,1.32,10.72,10.72,0,0,0,2.33,1.39,8.27,8.27,0,0,1,2.76,1.89,3.23,3.23,0,0,1,.79,2.12,3.16,3.16,0,0,1-1.28,2.71,5.9,5.9,0,0,1-3.56.94,9.3,9.3,0,0,1-1.86-.22,4.49,4.49,0,0,1-1.54-.55Z"/><path class="cls-2" d="M343.34,48.14H342V58.63h1.29v1.46H339V58.63h1.29V48.14H339V46.68h4.31Z"/><path class="cls-2" d="M344.31,53.54a7.35,7.35,0,0,1,1.76-5.17,6.13,6.13,0,0,1,4.76-1.92,5.79,5.79,0,0,1,4.5,1.88A7,7,0,0,1,357,53.22a7.37,7.37,0,0,1-1.75,5.17,6,6,0,0,1-4.67,1.91A5.91,5.91,0,0,1,346,58.43,7,7,0,0,1,344.31,53.54Zm1.82-.14a5.83,5.83,0,0,0,1.24,3.9,4,4,0,0,0,3.24,1.47A4.24,4.24,0,0,0,354,57.37a5.8,5.8,0,0,0,1.22-3.93,6,6,0,0,0-1.2-4A4.08,4.08,0,0,0,350.72,48a4.16,4.16,0,0,0-3.32,1.49A5.79,5.79,0,0,0,346.12,53.41Z"/><path class="cls-2" d="M370.21,60.09h-2.05l-6.74-10.43a5.06,5.06,0,0,1-.46-.87h-.05a15.71,15.71,0,0,1,.07,1.88v9.42h-1.71V46.68h2.17L368,56.93a9.31,9.31,0,0,1,.55.93h0a15,15,0,0,1-.09-2V46.68h1.71Z"/><path class="cls-2" d="M377.58,57.57a4.79,4.79,0,0,0,1.64.88,6.13,6.13,0,0,0,2,.35q2.82,0,2.82-2a1.78,1.78,0,0,0-.3-1,2.9,2.9,0,0,0-.83-.8,22.08,22.08,0,0,0-2-1.06,7.63,7.63,0,0,1-2.66-1.87,3.21,3.21,0,0,1-.64-2,3.11,3.11,0,0,1,1.34-2.65,5.59,5.59,0,0,1,3.38-1,6.7,6.7,0,0,1,2.93.48v1.89a5.26,5.26,0,0,0-3.06-.84,3.56,3.56,0,0,0-2,.51,1.63,1.63,0,0,0-.77,1.43,1.74,1.74,0,0,0,.54,1.32,10.7,10.7,0,0,0,2.33,1.39A8.25,8.25,0,0,1,385,54.54a3.22,3.22,0,0,1,.79,2.12,3.16,3.16,0,0,1-1.28,2.71,5.89,5.89,0,0,1-3.56.94,9.32,9.32,0,0,1-1.86-.22,4.48,4.48,0,0,1-1.54-.55Z"/><path class="cls-2" d="M396.18,48.22h-3.87V60.09h-1.74V48.22h-3.85V46.68h9.46Z"/><path class="cls-2" d="M407.82,54.63q0,5.69-5.16,5.69-4.94,0-4.94-5.49V46.68h1.73v8.07q0,4,3.38,4t3.26-3.89v-8.2h1.73Z"/><path class="cls-2" d="M410.76,60.09V46.68h3.83a7.4,7.4,0,0,1,5.07,1.77,6,6,0,0,1,2,4.76,6.49,6.49,0,0,1-2,5,7.34,7.34,0,0,1-5.21,1.88Zm1.73-11.86V58.56h1.95a5.48,5.48,0,0,0,4-1.39,5.19,5.19,0,0,0,1.43-3.9,4.7,4.7,0,0,0-1.47-3.77,5.73,5.73,0,0,0-3.87-1.26Z"/><path class="cls-2" d="M426.93,48.14h-1.29V58.63h1.29v1.46h-4.31V58.63h1.29V48.14h-1.29V46.68h4.31Z"/><path class="cls-2" d="M427.9,53.54a7.36,7.36,0,0,1,1.76-5.17,6.13,6.13,0,0,1,4.76-1.92,5.79,5.79,0,0,1,4.5,1.88,7,7,0,0,1,1.71,4.89,7.38,7.38,0,0,1-1.75,5.17,6,6,0,0,1-4.67,1.91,5.91,5.91,0,0,1-4.58-1.88A7,7,0,0,1,427.9,53.54Zm1.82-.14A5.83,5.83,0,0,0,431,57.3a4,4,0,0,0,3.24,1.47,4.23,4.23,0,0,0,3.37-1.41,5.8,5.8,0,0,0,1.22-3.93,6,6,0,0,0-1.2-4A4.08,4.08,0,0,0,434.31,48,4.16,4.16,0,0,0,431,49.5,5.8,5.8,0,0,0,429.71,53.41Z"/></svg>